<svg id="Layer_5" enable-background="new 0 0 64 64" height="512" viewBox="0 0 64 64" width="512" xmlns="http://www.w3.org/2000/svg"><g><g><g><path d="m53 10c4.97 0 9 4.03 9 9s-4.03 9-9 9h-5v-8c0-2.21-1.79-4-4-4h-24c-2.21 0-4 1.79-4 4v8h-7c-3.87 0-7-3.13-7-7s3.13-7 7-7c.36 0 .7.04 1.05.09.47-6.76 6.08-12.09 12.95-12.09 5.22 0 9.7 3.08 11.77 7.51 1.62-1.55 3.81-2.51 6.23-2.51 3.19 0 5.98 1.66 7.58 4.16 1.31-.73 2.81-1.16 4.42-1.16z" fill="#e6e9ed"/></g><g><path d="m48 55v3c0 2.21-1.79 4-4 4h-24c-2.21 0-4-1.79-4-4v-5-14-5-6-8c0-2.21 1.79-4 4-4h24c2.21 0 4 1.79 4 4v8 9 9z" fill="#aab2bd"/></g><g><path d="m21 48h22c.55 0 1 .45 1 1v8c0 .55-.45 1-1 1h-22c-.55 0-1-.45-1-1v-8c0-.55.45-1 1-1z" fill="#69d6f4"/></g><g><path d="m21 34h22c.55 0 1 .45 1 1v8c0 .55-.45 1-1 1h-22c-.55 0-1-.45-1-1v-8c0-.55.45-1 1-1z" fill="#69d6f4"/></g><g><path d="m21 20h22c.55 0 1 .45 1 1v8c0 .55-.45 1-1 1h-22c-.55 0-1-.45-1-1v-8c0-.55.45-1 1-1z" fill="#69d6f4"/></g><g><path d="m16 53v5h-3l-.57-1.6c-.43-.15-.85-.33-1.26-.53l-1.53.74-4.25-4.25.74-1.53c-.2-.41-.38-.83-.53-1.26l-1.6-.57v-6l1.6-.57c.15-.43.33-.85.53-1.26l-.74-1.53 4.25-4.25 1.53.74c.41-.2.83-.38 1.26-.53l.57-1.6h3v5c-3.87 0-7 3.13-7 7s3.13 7 7 7z" fill="#fcd770"/></g><g><circle cx="56" cy="55" fill="#ff826e" r="2"/></g><g><circle cx="60" cy="46" fill="#ff826e" r="2"/></g><g><circle cx="56" cy="37" fill="#ff826e" r="2"/></g></g><g><path d="m43 19h-22c-1.103 0-2 .897-2 2v8c0 1.103.897 2 2 2h22c1.103 0 2-.897 2-2v-8c0-1.103-.897-2-2-2zm-22 10v-8h22l.002 8z"/><path d="m23 23h2v4h-2z"/><path d="m27 23h2v4h-2z"/><path d="m43 33h-22c-1.103 0-2 .897-2 2v8c0 1.103.897 2 2 2h22c1.103 0 2-.897 2-2v-8c0-1.103-.897-2-2-2zm0 10h-22v-8h22z"/><path d="m39 37h2v4h-2z"/><path d="m35 37h2v4h-2z"/><path d="m43 47h-22c-1.103 0-2 .897-2 2v8c0 1.103.897 2 2 2h22c1.103 0 2-.897 2-2v-8c0-1.103-.897-2-2-2zm-22 10v-8h22l.002 8z"/><path d="m23 51h2v4h-2z"/><path d="m27 51h2v4h-2z"/><path d="m31 23h2v4h-2z"/><path d="m31 37h2v4h-2z"/><path d="m31 51h2v4h-2z"/><path d="m60 43c-1.302 0-2.402.839-2.816 2h-8.184v-7h4.184c.414 1.161 1.514 2 2.816 2 1.654 0 3-1.346 3-3s-1.346-3-3-3c-1.302 0-2.402.839-2.816 2h-4.184v-7h4c5.514 0 10-4.486 10-10s-4.486-10-10-10c-1.412 0-2.813.303-4.099.882-1.889-2.446-4.781-3.882-7.901-3.882-2.15 0-4.21.684-5.921 1.947-2.492-4.259-7.103-6.947-12.079-6.947-6.972 0-12.865 5.194-13.844 12.002-.052-.001-.104-.002-.156-.002-4.411 0-8 3.589-8 8s3.589 8 8 8h6v4h-2.708l-.644 1.826c-.157.062-.314.127-.471.196l-1.749-.836-5.242 5.242.836 1.749c-.069.156-.135.313-.196.471l-1.826.644v7.416l1.826.644c.062.157.127.314.196.471l-.836 1.749 5.242 5.242 1.749-.836c.156.069.313.135.471.196l.644 1.826h2.809c.465 2.279 2.484 4 4.899 4h24c2.757 0 5-2.243 5-5v-2h4.184c.414 1.161 1.514 2 2.816 2 1.654 0 3-1.346 3-3s-1.346-3-3-3c-1.302 0-2.402.839-2.816 2h-4.184v-7h8.184c.414 1.161 1.514 2 2.816 2 1.654 0 3-1.346 3-3s-1.346-3-3-3zm-4-7c.552 0 1 .448 1 1s-.448 1-1 1-1-.448-1-1 .448-1 1-1zm0 18c.552 0 1 .448 1 1s-.448 1-1 1-1-.448-1-1 .448-1 1-1zm-42.783 1.607-.459-.156c-.382-.13-.767-.291-1.145-.477l-.436-.214-1.335.639-3.242-3.242.639-1.335-.214-.436c-.186-.378-.347-.763-.477-1.145l-.156-.459-1.392-.49v-4.584l1.393-.491.156-.459c.13-.382.291-.767.477-1.145l.214-.436-.639-1.335 3.242-3.242 1.335.639.436-.214c.378-.186.763-.347 1.145-.477l.459-.156.49-1.392h1.292v3.069c-3.94.495-7 3.859-7 7.931s3.06 7.436 7 7.931v3.069h-1.292zm1.783-15.517v11.82c-2.833-.478-5-2.942-5-5.91s2.167-5.431 5-5.91zm32 17.91c0 1.654-1.346 3-3 3h-24c-1.654 0-3-1.346-3-3v-38c0-1.654 1.346-3 3-3h24c1.654 0 3 1.346 3 3zm-3-43h-24c-2.757 0-5 2.243-5 5v7h-6c-3.309 0-6-2.691-6-6s2.691-6 6-6c.271 0 .556.024.896.075l1.071.163.076-1.082c.436-6.256 5.688-11.156 11.957-11.156 4.634 0 8.898 2.722 10.866 6.935l.591 1.266 1.008-.967c1.5-1.441 3.466-2.234 5.535-2.234 2.738 0 5.258 1.384 6.739 3.703l.511.798.824-.467c1.197-.677 2.555-1.034 3.926-1.034 4.411 0 8 3.589 8 8s-3.589 8-8 8h-4v-7c0-2.757-2.243-5-5-5zm16 32c-.552 0-1-.448-1-1s.448-1 1-1 1 .448 1 1-.448 1-1 1z"/><path d="m13 15h2c0-4.411 3.589-8 8-8v-2c-5.514 0-10 4.486-10 10z"/><path d="m57 19h2c0-3.309-2.691-6-6-6v2c2.206 0 4 1.794 4 4z"/></g></g></svg>