<svg id="Layer_5" enable-background="new 0 0 64 64" height="512" viewBox="0 0 64 64" width="512" xmlns="http://www.w3.org/2000/svg"><g><g><g><path d="m45 55v4c0 1.66-7.61 3-17 3s-17-1.34-17-3v-4c0 1.66 7.61 3 17 3s17-1.34 17-3z" fill="#838f9b"/></g><g><path d="m37 52.45c4.8.53 8 1.48 8 2.55 0 1.66-7.61 3-17 3s-17-1.34-17-3c0-1.07 3.2-2.02 8-2.55v1.55h18z" fill="#969faa"/></g><g><path d="m37 52.45v1.55h-18v-1.55-4.45h18z" fill="#aab2bd"/></g><g><path d="m54 26.96v17.04c0 2.21-1.79 4-4 4h-13-18-13c-2.21 0-4-1.79-4-4v-28c0-2.21 1.79-4 4-4h30.69c-.04.11-.08.23-.12.35l-2.57.65v3h-27c-.55 0-1 .45-1 1v26c0 .55.45 1 1 1h42c.55 0 1-.45 1-1v-13h1l.65-2.57c.64-.2 1.25-.47 1.84-.77z" fill="#ccd1d9"/></g><g><g><path d="m48 24c-4.42 0-8-3.58-8-8h-33c-.55 0-1 .45-1 1v26c0 .55.45 1 1 1h42c.55 0 1-.45 1-1v-19.262c-.64.165-1.308.262-2 .262z" fill="#69d6f4"/></g></g><g><circle cx="20" cy="30" fill="#4fc1e9" r="10"/></g><g><path d="m62 13v6l-2.57.65c-.2.64-.47 1.25-.77 1.84l1.36 2.29-4.24 4.24-1.78-1.06-.51-.3c-.59.3-1.2.57-1.84.77l-.65 2.57h-1-5l-.65-2.57c-.64-.2-1.25-.47-1.84-.77l-2.29 1.36-4.24-4.24 1.36-2.29c-.3-.59-.57-1.2-.77-1.84l-2.57-.65v-3-3l2.57-.65c.04-.12.08-.24.12-.35.18-.52.41-1.01.65-1.49l-1.36-2.29 4.24-4.24 2.29 1.36c.59-.3 1.2-.57 1.84-.77l.65-2.57h6l.65 2.57c.64.2 1.25.47 1.84.77l2.29-1.36 4.24 4.24-1.36 2.29c.3.59.57 1.2.77 1.84zm-6 3c0-4.42-3.58-8-8-8s-8 3.58-8 8 3.58 8 8 8 8-3.58 8-8z" fill="#ffc729"/></g><g><path d="m48 8c4.42 0 8 3.58 8 8s-3.58 8-8 8-8-3.58-8-8 3.58-8 8-8zm4 8c0-2.21-1.79-4-4-4s-4 1.79-4 4 1.79 4 4 4 4-1.79 4-4z" fill="#fcd770"/></g></g><g><path d="m63 19.777v-7.555l-2.802-.713c-.119-.318-.252-.639-.4-.956l1.48-2.489-5.342-5.342-2.489 1.479c-.317-.147-.637-.281-.956-.4l-.714-2.801h-7.555l-.712 2.802c-.319.119-.639.253-.956.4l-2.489-1.479-5.342 5.342 1.48 2.489c-.069.148-.124.297-.187.446h-30.016c-2.757 0-5 2.243-5 5v28c0 2.757 2.243 5 5 5h12v2.57c-7.975 1.004-8 2.755-8 3.43v4c0 3.808 14.994 4 18 4s18-.192 18-4v-4c0-.675-.025-2.426-8-3.43v-2.57h12c2.757 0 5-2.243 5-5v-15.279l.936.556 5.342-5.342-1.48-2.489c.147-.317.281-.638.4-.956zm-22.936 9.5 2.489-1.479c.317.147.637.281.956.4l.714 2.802h4.777v12h-42v-26h26v2.777l2.802.713c.119.318.252.639.4.956l-1.48 2.489zm-12.064 31.723c-9.803 0-15.217-1.385-16-2.144v-1.786c4.184 1.813 13.675 1.93 16 1.93s11.816-.117 16-1.93v1.787c-.783.758-6.197 2.143-16 2.143zm15.799-5.995c-1.276.778-6.609 1.995-15.799 1.995s-14.523-1.217-15.799-1.995c.594-.353 2.252-.953 5.799-1.419v1.414h20v-1.414c3.547.466 5.206 1.066 5.799 1.419zm-7.799-2.005h-16v-4h16zm14-6h-44c-1.654 0-3-1.346-3-3v-28c0-1.654 1.346-3 3-3h27v2h-26c-1.103 0-2 .897-2 2v26c0 1.103.897 2 2 2h42c1.103 0 2-.897 2-2v-12h.777l.713-2.802c.17-.064.34-.142.51-.214v16.016c0 1.654-1.346 3-3 3zm8.764-23.379-3.143 3.143-2.096-1.246-.493.256c-.558.288-1.124.525-1.683.704l-.528.168-.598 2.354h-4.445l-.599-2.354-.528-.168c-.559-.179-1.125-.416-1.683-.704l-.493-.256-2.096 1.246-3.143-3.143 1.246-2.095-.254-.492c-.289-.56-.525-1.126-.704-1.686l-.169-.528-2.355-.597v-4.445l2.354-.598.169-.528c.179-.56.415-1.126.704-1.686l.254-.492-1.246-2.095 3.143-3.143 2.096 1.246.493-.256c.558-.288 1.124-.525 1.683-.704l.528-.168.599-2.354h4.445l.599 2.354.528.168c.559.179 1.125.416 1.683.704l.493.256 2.096-1.246 3.143 3.143-1.246 2.095.254.492c.289.56.525 1.126.704 1.686l.169.528 2.355.597v4.445l-2.354.598-.169.528c-.179.56-.415 1.126-.704 1.686l-.254.492z"/><path d="m48 7c-4.962 0-9 4.037-9 9s4.038 9 9 9 9-4.037 9-9-4.038-9-9-9zm0 16c-3.86 0-7-3.141-7-7s3.14-7 7-7 7 3.141 7 7-3.14 7-7 7z"/><path d="m48 11c-2.757 0-5 2.243-5 5s2.243 5 5 5 5-2.243 5-5-2.243-5-5-5zm0 8c-1.654 0-3-1.346-3-3s1.346-3 3-3 3 1.346 3 3-1.346 3-3 3z"/><path d="m20 19c-6.065 0-11 4.935-11 11s4.935 11 11 11 11-4.935 11-11-4.935-11-11-11zm0 20c-.681 0-1.533-1.089-2.155-3h4.309c-.621 1.911-1.473 3-2.154 3zm-2.65-5c-.166-.901-.285-1.902-.329-3h5.96c-.044 1.098-.163 2.099-.329 3zm-6.291-3h3.961c.041 1.015.146 2.029.31 3h-3.38c-.461-.923-.772-1.932-.891-3zm8.941-10c.681 0 1.533 1.089 2.155 3h-4.309c.621-1.911 1.473-3 2.154-3zm2.65 5c.166.901.285 1.902.329 3h-5.96c.044-1.098.163-2.099.329-3zm-7.63 3h-3.961c.119-1.068.43-2.077.891-3h3.381c-.165.971-.269 1.985-.311 3zm9.96 2h3.961c-.119 1.068-.43 2.077-.891 3h-3.381c.165-.971.269-1.985.311-3zm0-2c-.041-1.015-.146-2.029-.31-3h3.381c.461.923.772 1.932.891 3zm1.709-5h-2.468c-.244-.867-.544-1.664-.899-2.357 1.3.519 2.447 1.332 3.367 2.357zm-10.012-2.357c-.355.693-.655 1.49-.899 2.357h-2.468c.921-1.025 2.068-1.838 3.367-2.357zm-3.366 14.357h2.468c.244.867.544 1.664.899 2.357-1.3-.519-2.447-1.332-3.367-2.357zm10.012 2.357c.355-.693.655-1.49.899-2.357h2.468c-.921 1.025-2.068 1.838-3.367 2.357z"/><path d="m33 39h2v2h-2z"/><path d="m37 39h10v2h-10z"/><path d="m33 35h14v2h-14z"/></g></g></svg>