<svg height="512pt" viewBox="0 0 512 512" width="512pt" xmlns="http://www.w3.org/2000/svg"><path d="m353.101562 476.691406c-39.035156 0-52.964843-22.757812-52.964843-61.792968v-8.828126h-88.273438v8.828126c0 39.035156-13.929687 61.792968-52.964843 61.792968l17.652343 17.652344h167.726563zm0 0" fill="#afb6bb"/><path d="m512 344.277344h-512v-316.242188c0-15.480468 12.554688-28.035156 28.035156-28.035156h455.9375c15.472656 0 28.027344 12.554688 28.027344 28.035156zm0 0" fill="#28384c"/><path d="m361.929688 211.863281 8.828124-19.441406v-139.457031h-247.171874v176.550781h210.148437zm0 0" fill="#afb6bb"/><path d="m0 308.964844v77.894531c0 15.484375 12.554688 28.039063 28.035156 28.039063h455.929688c15.480468 0 28.035156-12.554688 28.035156-28.039063v-77.894531zm0 0" fill="#e7eced"/><path d="m238.34375 344.277344h35.3125v35.308594h-35.3125zm0 0" fill="#28384c"/><path d="m388.414062 512h-264.828124v-17.671875c0-9.738281 7.902343-17.636719 17.636718-17.636719h229.554688c9.734375 0 17.636718 7.898438 17.636718 17.636719zm0 0" fill="#e7eced"/><path d="m414.410156 247.515625-25.554687-25.554687c-.460938-.460938-.460938-1.199219 0-1.660157l17.265625-17.265625-88.273438-26.484375 26.480469 88.277344 16.824219-16.824219c1.050781-1.050781 2.757812-1.050781 3.816406 0l24.476562 24.476563c.644532.644531 1.6875.644531 2.332032 0l22.632812-22.632813c.644532-.636718.644532-1.6875 0-2.332031zm0 0" fill="#7383bf"/><path d="m123.585938 52.964844h247.171874v44.136718h-247.171874zm0 0" fill="#e7eced"/><path d="m158.898438 141.242188h70.617187v52.964843h-70.617187zm0 0" fill="#366db6"/><path d="m317.847656 176.550781 17.601563 5.28125v-40.589843h-70.621094v52.964843h58.316406zm0 0" fill="#dd352e"/></svg>